<?xml version="1.0" standalone="no"?>
<!DOCTYPE svg PUBLIC "-//W3C//DTD SVG 20010904//EN"
 "http://www.w3.org/TR/2001/REC-SVG-20010904/DTD/svg10.dtd">
<svg version="1.0" xmlns="http://www.w3.org/2000/svg"
 width="160.000000pt" height="160.000000pt" viewBox="0 0 160.000000 160.000000"
 preserveAspectRatio="xMidYMid meet">

<g transform="translate(0.000000,160.000000) scale(0.100000,-0.100000)"
fill="#000000" stroke="none">
<path d="M0 800 l0 -800 654 0 c695 0 673 -2 655 47 -5 15 -14 20 -27 16 -26
-6 -33 7 -18 35 l12 23 12 -23 c7 -13 26 -31 42 -40 17 -9 30 -25 29 -35 0
-14 -2 -13 -10 5 -5 13 -14 20 -20 16 -8 -4 -7 -9 2 -15 8 -5 10 -9 4 -9 -5 0
-3 -5 5 -10 8 -5 70 -10 138 -10 l122 0 0 800 0 800 -800 0 -800 0 0 -800z
m385 -702 c6 -13 21 -28 35 -35 20 -10 21 -13 7 -13 -11 0 -27 10 -37 23 -10
12 -22 18 -26 14 -5 -4 -2 -12 6 -17 11 -7 4 -9 -22 -8 -20 1 -39 7 -42 14 -7
17 25 28 36 12 6 -10 10 -7 14 10 8 28 17 28 29 0z m145 7 c0 -8 15 -24 33
-35 23 -14 27 -20 14 -20 -11 0 -27 10 -36 22 -12 15 -20 18 -25 10 -4 -7 -2
-12 4 -12 6 0 9 -4 6 -9 -3 -5 1 -12 10 -15 20 -8 8 -26 -17 -26 -16 0 -19 5
-14 20 6 19 -2 25 -31 21 -7 -1 -14 5 -17 13 -7 18 24 31 35 14 6 -10 10 -7
14 10 7 25 24 30 24 7z m187 -39 c23 -13 25 -15 8 -16 -11 0 -26 9 -33 20 -7
12 -17 18 -23 14 -8 -4 -7 -9 2 -15 9 -5 1 -8 -23 -7 -20 1 -39 7 -42 14 -6
16 25 28 35 13 4 -8 11 -4 19 12 l13 23 8 -21 c4 -12 21 -29 36 -37z m150 0
c23 -13 25 -15 8 -16 -11 0 -26 9 -33 20 -7 12 -17 18 -23 14 -8 -4 -7 -9 2
-15 10 -6 10 -9 2 -9 -19 0 -25 18 -12 42 l12 22 8 -21 c4 -12 21 -29 36 -37z
m127 19 c6 -6 20 -16 31 -23 20 -11 20 -11 -2 -12 -12 0 -23 4 -25 10 -2 6 -8
6 -18 0 -13 -8 -12 -10 3 -10 23 0 22 -17 -2 -30 -22 -11 -34 0 -25 24 3 9 1
16 -6 16 -6 0 -8 5 -4 12 4 7 3 8 -4 4 -6 -4 -9 -13 -5 -21 3 -8 0 -15 -7 -15
-6 0 -9 4 -6 9 3 5 -1 14 -10 21 -12 11 -12 15 -2 21 7 5 20 6 29 3 10 -3 20
3 24 13 6 15 8 15 13 3 3 -8 10 -20 16 -25z m180 -24 c21 -9 21 -10 -1 -10
-13 -1 -23 4 -23 10 0 5 -5 7 -10 4 -6 -4 -17 -4 -25 -1 -12 4 -13 10 -3 31
l12 26 15 -25 c8 -13 24 -29 35 -35z m309 -10 c-1 -2 -10 0 -20 4 -10 4 -31 7
-47 6 -17 -2 -26 1 -22 7 3 6 16 8 28 4 14 -3 19 -2 14 7 -4 6 -12 9 -17 6
-10 -7 -11 -3 -3 18 4 11 13 7 37 -17 18 -17 31 -33 30 -35z m-691 32 c6 -23
-1 -43 -13 -43 -6 0 -8 4 -5 9 3 5 -1 14 -10 21 -12 11 -12 15 -2 21 19 13 25
11 30 -8z m302 -6 c-3 -34 -4 -37 -16 -37 -6 0 -8 3 -5 7 4 3 2 12 -4 19 -12
15 -3 37 14 31 7 -2 11 -11 11 -20z m150 0 c-3 -34 -4 -37 -16 -37 -6 0 -8 3
-5 7 4 3 2 12 -4 19 -12 15 -3 37 14 31 7 -2 11 -11 11 -20z m151 14 c3 -5 1
-12 -4 -16 -6 -3 -8 -12 -4 -20 3 -8 -1 -15 -8 -15 -7 0 -9 3 -6 7 4 3 2 12
-4 19 -11 14 -4 34 11 34 5 0 11 -4 15 -9z m-755 -41 c0 -5 -5 -10 -11 -10 -5
0 -7 5 -4 10 3 6 8 10 11 10 2 0 4 -4 4 -10z m-250 -15 c0 -8 -9 -15 -19 -15
-24 0 -36 16 -19 23 24 10 38 7 38 -8z m305 6 c3 -6 -3 -15 -14 -21 -21 -11
-37 2 -26 20 8 13 32 13 40 1z m146 -6 c0 -5 -9 -11 -21 -13 -20 -3 -27 8 -13
22 10 9 34 3 34 -9z m307 3 c-5 -15 -48 -24 -48 -10 0 14 12 22 33 22 10 0 17
-5 15 -12z m152 2 c0 -15 -38 -32 -45 -20 -3 5 -3 14 0 20 8 13 45 13 45 0z
m150 -8 c0 -14 -9 -19 -37 -20 l-37 -3 23 21 c30 25 51 26 51 2z m40 -1 c0 -6
-4 -13 -10 -16 -5 -3 -10 1 -10 9 0 9 5 16 10 16 6 0 10 -4 10 -9z"/>
<path d="M965 80 c-3 -5 1 -10 10 -10 9 0 13 5 10 10 -3 6 -8 10 -10 10 -2 0
-7 -4 -10 -10z"/>
<path d="M1115 80 c-3 -5 1 -10 10 -10 9 0 13 5 10 10 -3 6 -8 10 -10 10 -2 0
-7 -4 -10 -10z"/>
<path d="M1265 80 c-3 -5 1 -10 10 -10 9 0 13 5 10 10 -3 6 -8 10 -10 10 -2 0
-7 -4 -10 -10z"/>
</g>
</svg>
