<?xml version="1.0" standalone="no"?>
<!DOCTYPE svg PUBLIC "-//W3C//DTD SVG 20010904//EN"
 "http://www.w3.org/TR/2001/REC-SVG-20010904/DTD/svg10.dtd">
<svg version="1.0" xmlns="http://www.w3.org/2000/svg"
 width="848.000000pt" height="203.000000pt" viewBox="0 0 848.000000 203.000000"
 preserveAspectRatio="xMidYMid meet">

<g transform="translate(0.000000,203.000000) scale(0.100000,-0.100000)"
fill="#000000" stroke="none">
<path d="M0 1015 l0 -1015 4240 0 4240 0 0 1015 0 1015 -4240 0 -4240 0 0
-1015z m6753 654 c47 -51 30 -143 -33 -169 -74 -31 -160 22 -160 98 0 100 124
146 193 71z m-5248 -246 c0 -162 4 -257 10 -259 6 -2 111 113 235 256 l225
260 114 0 115 0 -30 -32 c-17 -18 -118 -130 -224 -248 -106 -118 -205 -227
-219 -243 l-25 -27 30 -33 c16 -17 50 -57 74 -87 24 -30 133 -155 242 -277
109 -122 198 -224 198 -227 0 -3 -51 -6 -114 -6 l-114 0 -204 238 c-112 130
-225 265 -252 300 -29 38 -52 60 -58 54 -5 -5 -7 -134 -6 -300 l3 -292 -92 0
-93 0 0 590 0 590 93 0 92 0 0 -257z m1275 -108 l0 -75 -46 0 c-71 0 -124 -20
-170 -65 -67 -64 -74 -102 -74 -412 l0 -263 -85 0 -85 0 0 404 c0 222 -3 418
-6 435 l-6 31 76 0 76 0 1 -27 c1 -75 16 -125 27 -95 8 24 62 81 98 103 46 28
79 37 142 38 l52 1 0 -75z m618 61 c71 -19 129 -55 184 -114 80 -85 118 -188
118 -318 0 -145 -36 -249 -116 -334 -89 -95 -242 -145 -374 -121 -243 42 -378
249 -344 524 23 183 134 320 293 363 62 17 175 17 239 0z m1042 -13 c132 -58
206 -187 217 -375 l6 -98 -317 0 c-359 0 -329 9 -300 -89 18 -62 73 -127 129
-152 26 -12 64 -19 109 -19 85 0 147 26 179 76 12 19 29 34 37 34 8 0 43 -13
78 -30 l63 -30 -16 -30 c-59 -113 -214 -181 -378 -165 -250 24 -397 190 -397
447 0 229 108 388 300 444 67 20 233 12 290 -13z m831 7 c75 -23 131 -66 159
-121 l20 -39 -64 -32 -64 -31 -28 33 c-38 45 -97 70 -166 70 -64 0 -103 -12
-135 -42 -25 -23 -31 -75 -13 -109 12 -22 70 -53 120 -64 19 -4 41 -11 50 -16
8 -5 50 -18 93 -29 97 -25 147 -50 180 -90 74 -87 56 -259 -35 -335 -108 -91
-330 -110 -475 -39 -54 26 -136 108 -146 144 -4 17 5 26 55 51 l60 30 39 -45
c51 -57 111 -81 204 -80 108 1 170 42 170 114 0 71 -37 95 -216 140 -68 17
-142 40 -164 49 -63 29 -101 77 -115 144 -30 147 53 270 207 306 70 17 196 12
264 -9z m910 -7 c132 -60 205 -186 216 -375 l6 -98 -317 0 c-359 0 -329 9
-300 -91 19 -66 92 -142 151 -158 109 -31 223 -1 270 70 l25 38 56 -26 c32
-14 65 -27 75 -30 23 -7 22 -11 -13 -66 -116 -184 -478 -194 -642 -19 -83 88
-118 188 -118 332 1 101 11 154 48 228 49 101 153 185 259 212 66 16 232 6
284 -17z m1279 -48 l0 -75 -43 0 c-76 0 -140 -26 -185 -74 -22 -24 -45 -61
-51 -82 -7 -23 -11 -149 -11 -311 l0 -273 -90 0 -90 0 2 438 3 437 70 0 70 0
3 -67 c2 -38 6 -68 10 -68 4 0 18 16 31 36 51 74 127 113 224 114 l57 0 0 -75z
m-702 -377 l2 -438 -90 0 -90 0 0 433 c0 239 3 437 7 441 4 4 43 5 88 4 l80
-3 3 -437z"/>
<path d="M3183 1225 c-52 -26 -88 -68 -120 -140 -27 -61 -25 -244 3 -305 48
-103 115 -150 214 -150 111 0 184 60 222 184 36 118 17 253 -49 348 -33 48
-111 88 -173 88 -29 0 -65 -9 -97 -25z"/>
<path d="M4186 1235 c-73 -26 -146 -122 -146 -193 l0 -32 214 0 c244 0 238 -3
212 84 -38 126 -155 186 -280 141z"/>
<path d="M5926 1235 c-73 -26 -146 -123 -146 -195 l0 -30 214 0 c177 0 215 3
219 14 3 8 -1 40 -10 72 -36 125 -153 184 -277 139z"/>
</g>
</svg>
